<?xml version="1.0" encoding="UTF-8"?>
<svg id="Layer_1" data-name="Layer 1" xmlns="http://www.w3.org/2000/svg" viewBox="0 0 213 58.4">
  <defs>
    <style>
      .cls-1 {
        fill: #f7f5ee;
      }

      .cls-2 {
        fill: #fff;
      }

      .cls-3 {
        fill: #0043ff;
      }

      .cls-4 {
        fill: #600;
      }

      .cls-5 {
        fill: #000e35;
      }

      .cls-6 {
        fill: #ff1200;
      }
    </style>
  </defs>
  <path class="cls-2" d="M198.8,36.5l12.6-20.5h-12.1l-7.2,12.9-7.2-12.9h-12.6l12.6,20.1-8.6,14-11.6-34.1h-13.7l-12.3,35.9V16h-13l-9.4,28.6-9.4-28.6h-4.6l-8.5,16.4v26h10.1v-25l8.1,25h8.1l8.2-25.1v25.1h19.4l2.6-8.1h14.7l2.5,8.1h15.8l8.2-14.8,8.8,14.8h12.7l-14.3-21.8.1-.1h0ZM153,41.2l4.7-15.8,4.7,15.8h-9.5.1Z"/>
  <path class="cls-2" d="M93.8,24.9v-8.9h-29.2v42.3h15.7l4.6-8.9h-9.2v-8.1h13.4l4.7-9h-18.1v-7.5h18.1s0,.1,0,.1Z"/>
  <path class="cls-2" d="M50.1,33.9c-1,.9-2.7,1.4-5.1,1.4h-5.7v-10.7h5.6c2.5,0,4.2.4,5.2,1.3s1.5,2.2,1.5,4-.5,3.2-1.5,4.1v-.1ZM55.8,41.4c4.3-2.5,6.5-6.5,6.5-12s-1.3-7.4-4-9.8-6.9-3.6-12.8-3.6h-17v42.3h10.7v-14.6h6.6l7.1,14.6h11.7l-8.8-17v.1Z"/>
  <path class="cls-2" d="M13.3,30.2c-.5,0-.9-.3-1.3-.6-2.4-2-6.6-5.7-8.2-7.8-1.4-1.7-2.7-3.3-3.3-5.4-.4-1.2-.5-2.4-.5-3.6s.3-3.2.9-4.7C2.9,3.2,7.8,0,13.3,0s10.4,3.2,12.4,8.2c.6,1.5.9,3.1.9,4.7s-.2,2.4-.5,3.6c-.6,2-1.8,3.6-3.3,5.4-1.7,2-5.9,5.7-8.2,7.7-.4.3-.8.6-1.3.6Z"/>
  <path class="cls-1" d="M25.1,8.4H1.5c-.6,1.4-.9,2.9-.9,4.4s.2,2.3.5,3.4h24.3c.3-1.1.5-2.2.5-3.4s-.3-3.1-.9-4.4h.1Z"/>
  <path class="cls-4" d="M13.3.7C7.9.7,3.3,3.9,1.5,8.4h23.6C23.3,3.9,18.7.7,13.3.7Z"/>
  <path class="cls-5" d="M1.1,16.3c.6,2,1.9,3.6,3.2,5.2,1.7,2.1,6.4,6.2,8.2,7.8h0c.2.2.5.4.8.4s.5-.2.8-.4h0c1.8-1.6,6.5-5.7,8.2-7.8,1.3-1.6,2.6-3.2,3.2-5.2H1.1Z"/>
  <path class="cls-6" d="M25.1,8.4h-11.8V2.8c0-1.2,1.1-2.1,2.3-1.9,4.4.8,8,3.7,9.5,7.5Z"/>
  <path class="cls-3" d="M25.4,16.3c-.6,2-1.9,3.6-3.2,5.2-1.7,2.1-6.4,6.2-8.2,7.8h0c-.2.2-.5.4-.8.4v-11.3c0-1.1.9-2,2-2h10.1s.1-.1.1-.1Z"/>
</svg>